<?xml version="1.0" encoding="UTF-8"?>
<!DOCTYPE svg PUBLIC "-//W3C//DTD SVG 1.1//EN" "http://www.w3.org/Graphics/SVG/1.1/DTD/svg11.dtd">
<svg xmlns="http://www.w3.org/2000/svg" version="1.1" width="64px" height="64px" style="shape-rendering:geometricPrecision; text-rendering:geometricPrecision; image-rendering:optimizeQuality; fill-rule:evenodd; clip-rule:evenodd" xmlns:xlink="http://www.w3.org/1999/xlink">
<g><path style="opacity:0.868" fill="#c0d8df" d="M 52.5,7.5 C 38.5,8.83333 24.5,8.83333 10.5,7.5C 12.8109,5.93175 15.4776,5.09842 18.5,5C 27.1667,4.33333 35.8333,4.33333 44.5,5C 47.5224,5.09842 50.1891,5.93175 52.5,7.5 Z"/></g>
<g><path style="opacity:0.975" fill="#bad0d6" d="M 10.5,7.5 C 24.5,8.83333 38.5,8.83333 52.5,7.5C 53.8333,8.16667 54.8333,9.16667 55.5,10.5C 47.5757,11.1518 39.5757,11.4851 31.5,11.5C 23.4697,11.4976 15.803,10.8309 8.5,9.5C 8.83333,8.5 9.5,7.83333 10.5,7.5 Z"/></g>
<g><path style="opacity:0.987" fill="#b3c7cd" d="M 8.5,9.5 C 15.803,10.8309 23.4697,11.4976 31.5,11.5C 39.5757,11.4851 47.5757,11.1518 55.5,10.5C 57.0739,12.1016 57.7406,14.1016 57.5,16.5C 53.7395,19.3591 50.7395,18.6924 48.5,14.5C 44.6279,14.2422 40.9612,14.9089 37.5,16.5C 27.1667,16.5 16.8333,16.5 6.5,16.5C 6.5,15.1667 6.5,13.8333 6.5,12.5C 6.42702,10.9731 7.09368,9.97306 8.5,9.5 Z"/></g>
<g><path style="opacity:1" fill="#a3b2b8" d="M 6.5,12.5 C 6.5,13.8333 6.5,15.1667 6.5,16.5C 16.8333,16.5 27.1667,16.5 37.5,16.5C 33.4359,19.0539 29.7692,22.2205 26.5,26C 24.2922,26.1909 22.2922,26.6909 20.5,27.5C 19.391,27.5569 18.391,27.8902 17.5,28.5C 14.9979,28.7495 12.4979,29.0828 10,29.5C 8.21343,29.2414 6.71343,28.5747 5.5,27.5C 5.5,24.1667 5.5,20.8333 5.5,17.5C 5.21552,15.5853 5.54885,13.9187 6.5,12.5 Z"/></g>
<g><path style="opacity:1" fill="#3f4548" d="M 48.5,14.5 C 48.5,16.1667 48.5,17.8333 48.5,19.5C 47.5,21.5 46.5,23.5 45.5,25.5C 45.5654,25.0618 45.3988,24.7284 45,24.5C 44.1253,27.2146 42.2919,28.5479 39.5,28.5C 40.3007,26.9582 40.634,25.2915 40.5,23.5C 36.7593,22.5985 34.7593,23.9319 34.5,27.5C 29.9174,28.1946 25.2508,28.1946 20.5,27.5C 22.2922,26.6909 24.2922,26.1909 26.5,26C 29.7692,22.2205 33.4359,19.0539 37.5,16.5C 40.9612,14.9089 44.6279,14.2422 48.5,14.5 Z"/></g>
<g><path style="opacity:1" fill="#7f8c90" d="M 39.5,28.5 C 37.7085,28.634 36.0418,28.3007 34.5,27.5C 34.7593,23.9319 36.7593,22.5985 40.5,23.5C 40.634,25.2915 40.3007,26.9582 39.5,28.5 Z"/></g>
<g><path style="opacity:1" fill="#33383a" d="M 45.5,25.5 C 44.5711,28.4119 43.2378,31.0786 41.5,33.5C 40.1667,34.5 38.8333,35.5 37.5,36.5C 37.0825,35.7784 36.4158,35.2784 35.5,35C 30.5294,33.9886 25.8627,34.4886 21.5,36.5C 21.5858,35.5041 21.2524,34.6708 20.5,34C 17.854,33.5026 15.1873,33.3359 12.5,33.5C 13.8606,31.4727 15.5273,29.806 17.5,28.5C 18.391,27.8902 19.391,27.5569 20.5,27.5C 25.2508,28.1946 29.9174,28.1946 34.5,27.5C 36.0418,28.3007 37.7085,28.634 39.5,28.5C 42.2919,28.5479 44.1253,27.2146 45,24.5C 45.3988,24.7284 45.5654,25.0618 45.5,25.5 Z"/></g>
<g><path style="opacity:1" fill="#949fa3" d="M 48.5,14.5 C 50.7395,18.6924 53.7395,19.3591 57.5,16.5C 57.5,23.5 57.5,30.5 57.5,37.5C 52.57,37.8025 47.7367,37.4692 43,36.5C 43.7323,33.7012 45.0657,31.0345 47,28.5C 47.696,25.5219 48.196,22.5219 48.5,19.5C 48.5,17.8333 48.5,16.1667 48.5,14.5 Z"/></g>
<g><path style="opacity:1" fill="#878f92" d="M 5.5,27.5 C 6.71343,28.5747 8.21343,29.2414 10,29.5C 12.4979,29.0828 14.9979,28.7495 17.5,28.5C 15.5273,29.806 13.8606,31.4727 12.5,33.5C 14.78,35.2227 17.4467,35.8893 20.5,35.5C 20.6085,37.5138 19.9418,39.1805 18.5,40.5C 17.8333,40.8333 17.1667,41.1667 16.5,41.5C 12.9657,42.7167 9.4657,42.7167 6,41.5C 5.50085,36.8452 5.33418,32.1785 5.5,27.5 Z"/></g>
<g><path style="opacity:1" fill="#81878a" d="M 48.5,19.5 C 48.196,22.5219 47.696,25.5219 47,28.5C 45.0657,31.0345 43.7323,33.7012 43,36.5C 47.7367,37.4692 52.57,37.8025 57.5,37.5C 57.8064,40.3854 57.4731,43.0521 56.5,45.5C 50.4908,45.6662 44.4908,45.4995 38.5,45C 37.4086,42.9361 37.2419,40.7695 38,38.5C 39.8022,37.2107 40.9688,35.5441 41.5,33.5C 43.2378,31.0786 44.5711,28.4119 45.5,25.5C 46.5,23.5 47.5,21.5 48.5,19.5 Z"/></g>
<g><path style="opacity:1" fill="#282b2d" d="M 18.5,40.5 C 19.404,41.209 19.7373,42.209 19.5,43.5C 20.791,43.2627 21.791,43.596 22.5,44.5C 20.7407,47.1897 18.4074,47.8564 15.5,46.5C 16.1272,45.5832 16.4606,44.5832 16.5,43.5C 16.5,42.8333 16.5,42.1667 16.5,41.5C 17.1667,41.1667 17.8333,40.8333 18.5,40.5 Z"/></g>
<g><path style="opacity:1" fill="#6d7172" d="M 5.5,17.5 C 5.5,20.8333 5.5,24.1667 5.5,27.5C 5.33418,32.1785 5.50085,36.8452 6,41.5C 9.4657,42.7167 12.9657,42.7167 16.5,41.5C 16.5,42.1667 16.5,42.8333 16.5,43.5C 15.8826,43.6107 15.3826,43.944 15,44.5C 14.5026,47.146 14.3359,49.8127 14.5,52.5C 11.248,52.7105 8.24805,52.0438 5.5,50.5C 4.24844,39.3527 4.24844,28.3527 5.5,17.5 Z"/></g>
<g><path style="opacity:1" fill="#636869" d="M 57.5,16.5 C 58.6585,26.6584 58.8252,36.9917 58,47.5C 57.7701,50.9676 56.2701,53.6342 53.5,55.5C 45.4487,53.9242 37.1153,52.5908 28.5,51.5C 28.5,48.8333 28.5,46.1667 28.5,43.5C 26.3792,43.3253 24.3792,43.6586 22.5,44.5C 21.791,43.596 20.791,43.2627 19.5,43.5C 19.7373,42.209 19.404,41.209 18.5,40.5C 19.9418,39.1805 20.6085,37.5138 20.5,35.5C 17.4467,35.8893 14.78,35.2227 12.5,33.5C 15.1873,33.3359 17.854,33.5026 20.5,34C 21.2524,34.6708 21.5858,35.5041 21.5,36.5C 22.5688,40.6433 25.2354,42.6433 29.5,42.5C 29.1866,45.2469 29.52,47.9135 30.5,50.5C 33.0426,47.4018 35.0426,44.0685 36.5,40.5C 35.9492,43.8067 35.6159,47.1401 35.5,50.5C 42.5,50.5 49.5,50.5 56.5,50.5C 56.5,48.8333 56.5,47.1667 56.5,45.5C 57.4731,43.0521 57.8064,40.3854 57.5,37.5C 57.5,30.5 57.5,23.5 57.5,16.5 Z"/></g>
<g><path style="opacity:1" fill="#767b7d" d="M 41.5,33.5 C 40.9688,35.5441 39.8022,37.2107 38,38.5C 37.2419,40.7695 37.4086,42.9361 38.5,45C 44.4908,45.4995 50.4908,45.6662 56.5,45.5C 56.5,47.1667 56.5,48.8333 56.5,50.5C 49.5,50.5 42.5,50.5 35.5,50.5C 35.6159,47.1401 35.9492,43.8067 36.5,40.5C 36.2322,38.901 36.5655,37.5676 37.5,36.5C 38.8333,35.5 40.1667,34.5 41.5,33.5 Z"/></g>
<g><path style="opacity:1" fill="#2d3132" d="M 37.5,36.5 C 36.5655,37.5676 36.2322,38.901 36.5,40.5C 35.0426,44.0685 33.0426,47.4018 30.5,50.5C 29.52,47.9135 29.1866,45.2469 29.5,42.5C 25.2354,42.6433 22.5688,40.6433 21.5,36.5C 25.8627,34.4886 30.5294,33.9886 35.5,35C 36.4158,35.2784 37.0825,35.7784 37.5,36.5 Z"/></g>
<g><path style="opacity:0.999" fill="#696b6c" d="M 16.5,43.5 C 16.4606,44.5832 16.1272,45.5832 15.5,46.5C 18.4074,47.8564 20.7407,47.1897 22.5,44.5C 24.3792,43.6586 26.3792,43.3253 28.5,43.5C 28.5,46.1667 28.5,48.8333 28.5,51.5C 37.1153,52.5908 45.4487,53.9242 53.5,55.5C 52.0783,55.7086 50.745,56.2086 49.5,57C 37.5046,57.4999 25.5046,57.6665 13.5,57.5C 9.62605,56.6307 6.95939,54.2974 5.5,50.5C 8.24805,52.0438 11.248,52.7105 14.5,52.5C 14.3359,49.8127 14.5026,47.146 15,44.5C 15.3826,43.944 15.8826,43.6107 16.5,43.5 Z"/></g>
<g><path style="opacity:0.141" fill="#0e0e0e" d="M 53.5,55.5 C 52.9423,56.7899 51.9423,57.6232 50.5,58C 37.9931,58.8265 25.6597,58.6599 13.5,57.5C 25.5046,57.6665 37.5046,57.4999 49.5,57C 50.745,56.2086 52.0783,55.7086 53.5,55.5 Z"/></g>
</svg>
