<?xml version="1.0" standalone="yes"?>
<svg xmlns="http://www.w3.org/2000/svg" width="64" height="64">
<path style="fill:#0d0e0e; stroke:none;" d="M0 0L0 64L64 64L64 0L0 0z"/>
<path style="fill:#c0d6dd; stroke:none;" d="M10 9C5.99257 9.4653 5.85088 13.7593 10.0231 14.7824C20.8433 17.4357 35.0252 14.8175 46 14.1528C48.8209 13.9819 58.1021 16.8127 57.1528 10.9954C56.4149 6.47362 50.5431 5.95198 47 5.41204C39.4479 4.26115 14.0662 1.60636 10 9z"/>
<path style="fill:#868f91; stroke:none;" d="M9 7L10 8L9 7z"/>
<path style="fill:#64696a; stroke:none;" d="M9 8L10 9L9 8z"/>
<path style="fill:#a9babf; stroke:none;" d="M54 8L55 9L54 8M57 10L58 11L57 10M7 11L8 12L7 11M56 11L57 12L56 11z"/>
<path style="fill:#868f91; stroke:none;" d="M5 12L6 13L5 12M58 12L59 13L58 12z"/>
<path style="fill:#a9babf; stroke:none;" d="M5 13L7.17901 28.3966L18 28.6906L42 16L42 15L5 13M43 14L43 15C51.935 15.6903 48.8213 23.535 48 30C60.5519 29.9903 56.6878 22.7121 59 13L43 14z"/>
<path style="fill:#c0d6dd; stroke:none;" d="M58 14L58 17L59 17L58 14M5.33333 15.6667L5.66667 16.3333L5.33333 15.6667z"/>
<path style="fill:#868f91; stroke:none;" d="M42.6667 15.3333L43.3333 15.6667L42.6667 15.3333z"/>
<path style="fill:#64696a; stroke:none;" d="M12 35L21 36C18.2352 42.0446 14.0391 48.4678 7 49L7 45L6 45L5 51C18.0802 61.9368 45.9199 61.9368 59 51L58 46L57 46L57 49C52.389 49 42.0976 50.9194 38.6042 47.3966C36.3242 45.0974 37.2864 41.4436 38.7276 39C43.6825 30.599 48.7861 25.3085 49 15C38.6024 15.4533 34.3612 21.213 26 26.0656C20.8318 29.0651 15.1241 29.3049 12 35z"/>
<path style="fill:#868f91; stroke:none;" d="M39 16L40 17L39 16M37 17L38 18L37 17M49 17L49 21L50 21L49 17M35 18L36 19L35 18z"/>
<path style="fill:#64696a; stroke:none;" d="M59 18L58 45L60 45L59 18M4 20L4 43L5 43L6 20L4 20z"/>
<path style="fill:#868f91; stroke:none;" d="M32 20L33 21L32 20M31 21L32 22L31 21M48 21C45.8403 33.1083 25.8115 49 49 49L57 49L58 28L57 28L48 30L48 21M30 22L31 23L30 22z"/>
<path style="fill:#0d0e0e; stroke:none;" d="M34 25L41 24C38.0866 21.9132 36.4512 22.5229 34 25z"/>
<path style="fill:#868f91; stroke:none;" d="M29 23L30 24L29 23z"/>
<path style="fill:#0d0e0e; stroke:none;" d="M46 23L47 24L46 23z"/>
<path style="fill:#868f91; stroke:none;" d="M28 24L29 25L28 24M37 24L37 29L41 27L37 24M27 25L28 26L27 25z"/>
<path style="fill:#0d0e0e; stroke:none;" d="M45 25C38.5412 32.9374 22.5824 27.9846 13 33L13 34L23 34C22.4103 39.3433 24.4755 42.1738 30 42L30 51C34.2549 47.6376 45.7292 30.0314 45 25z"/>
<path style="fill:#868f91; stroke:none;" d="M25.6667 26.3333L26.3333 26.6667L25.6667 26.3333M20 27L20 28L23 28L20 27z"/>
<path style="fill:#a9babf; stroke:none;" d="M37.6667 27.3333L38.3333 27.6667L37.6667 27.3333z"/>
<path style="fill:#868f91; stroke:none;" d="M6 28L7 49C14.2665 48.7635 19.1128 42.7931 21 36L12 35L16 31L16 30L6 28M18.6667 28.3333L19.3333 28.6667L18.6667 28.3333M16.6667 29.3333L17.3333 29.6667L16.6667 29.3333z"/>
<path style="fill:#0d0e0e; stroke:none;" d="M19 41L16 48L23 44L19 41z"/>
<path style="fill:#868f91; stroke:none;" d="M21.6667 42.3333L22.3333 42.6667L21.6667 42.3333M25 45L26 49L27 49L28 45L25 45z"/>
<path style="fill:#c0d6dd; stroke:none;" d="M5.33333 47.6667L5.66667 48.3333L5.33333 47.6667M58 48L59 49L58 48z"/>
<path style="fill:#868f91; stroke:none;" d="M5 49L6 50L5 49M58 49L59 50L58 49M6 52L7 53L6 52M57 52L58 53L57 52z"/>
<path style="fill:#64696a; stroke:none;" d="M8 55L9 56L8 55M55 55L56 56L55 55z"/>
</svg>
