<?xml version="1.0" standalone="no"?>
<!DOCTYPE svg PUBLIC "-//W3C//DTD SVG 20010904//EN"
 "http://www.w3.org/TR/2001/REC-SVG-20010904/DTD/svg10.dtd">
<svg version="1.0" xmlns="http://www.w3.org/2000/svg"
 width="64.000000pt" height="64.000000pt" viewBox="0 0 64.000000 64.000000"
 preserveAspectRatio="xMidYMid meet">

<g transform="translate(0.000000,64.000000) scale(0.100000,-0.100000)"
fill="#000000" stroke="none">
<path d="M407 476 c-46 -17 -115 -63 -127 -86 -5 -10 -26 -20 -47 -23 -44 -8
-116 -53 -110 -70 2 -7 19 -13 38 -15 54 -5 57 -18 14 -62 -30 -31 -47 -40
-72 -40 -37 0 -42 -14 -19 -58 26 -50 52 -56 239 -56 187 0 207 5 232 54 29
57 25 60 -80 60 l-95 0 0 31 c0 19 11 45 29 68 42 53 71 115 78 166 5 43 4 45
-18 45 -13 -1 -41 -7 -62 -14z m-3 -95 c8 -12 -21 -34 -34 -26 -17 11 -11 35
9 35 11 0 22 -4 25 -9z"/>
</g>
</svg>
