<?xml version="1.0" standalone="no"?>
<!DOCTYPE svg PUBLIC "-//W3C//DTD SVG 20010904//EN"
 "http://www.w3.org/TR/2001/REC-SVG-20010904/DTD/svg10.dtd">
<svg version="1.0" xmlns="http://www.w3.org/2000/svg"
 width="512.000000pt" height="512.000000pt" viewBox="0 0 512.000000 512.000000"
 preserveAspectRatio="xMidYMid meet">

<g transform="translate(0.000000,512.000000) scale(0.100000,-0.100000)"
fill="#000000" stroke="none">
<path d="M3736 3884 c-387 -50 -730 -185 -1031 -406 -115 -84 -356 -321 -463
-454 l-74 -91 -91 -7 c-176 -12 -390 -78 -577 -178 -218 -116 -468 -314 -436
-345 3 -4 68 4 144 17 76 12 201 25 280 28 127 4 142 3 142 -12 0 -10 33 -37
80 -67 44 -28 80 -55 80 -61 0 -5 3 -7 8 -4 4 2 -1 -40 -12 -95 l-19 -99 25
-19 c16 -13 28 -35 32 -60 10 -63 43 -130 104 -211 95 -128 193 -211 292 -250
62 -24 124 -70 159 -118 19 -26 41 -52 49 -59 13 -11 12 -31 -7 -155 -11 -79
-21 -152 -21 -161 0 -40 45 -11 127 83 64 72 93 97 122 106 108 32 187 191
297 595 44 164 60 199 172 386 51 84 92 156 92 159 0 4 35 45 78 92 378 414
533 762 597 1345 8 67 22 63 -149 41z m-631 -563 c32 -9 138 -112 184 -178 21
-30 26 -49 25 -93 -2 -170 -181 -288 -348 -231 -56 19 -131 93 -153 149 -74
195 102 408 292 353z"/>
<path d="M1640 1953 c-19 -10 -72 -54 -116 -98 -65 -65 -90 -98 -122 -166 -46
-96 -72 -201 -72 -288 l0 -61 75 0 c101 0 165 15 261 60 132 63 294 230 294
302 0 15 -2 28 -4 28 -2 0 -30 -14 -61 -30 -77 -41 -154 -62 -212 -58 l-48 3
-3 48 c-4 57 19 143 58 214 36 68 22 81 -50 46z"/>
</g>
</svg>
